<svg width="16" height="16" viewBox="0 0 16 16" fill="none" xmlns="http://www.w3.org/2000/svg">
<path d="M13.1098 10.5377C12.9183 10.9802 12.6916 11.3876 12.4289 11.7621C12.0709 12.2727 11.7778 12.6261 11.5519 12.8223C11.2017 13.1444 10.8265 13.3094 10.4247 13.3188C10.1363 13.3188 9.78845 13.2367 9.38355 13.0702C8.97731 12.9044 8.60399 12.8223 8.26263 12.8223C7.90463 12.8223 7.52067 12.9044 7.10998 13.0702C6.69867 13.2367 6.36732 13.3235 6.11398 13.3321C5.72869 13.3485 5.34466 13.1788 4.96133 12.8223C4.71666 12.6089 4.41064 12.2429 4.04404 11.7246C3.6507 11.171 3.32732 10.5291 3.07398 9.79725C2.80267 9.00678 2.66666 8.24133 2.66666 7.50028C2.66666 6.6514 2.85004 5.91926 3.21734 5.30573C3.50601 4.81291 3.89005 4.42417 4.3707 4.13879C4.85135 3.8534 5.37069 3.70798 5.92997 3.69867C6.236 3.69867 6.63731 3.79336 7.13601 3.97944C7.63331 4.16615 7.95262 4.26084 8.09262 4.26084C8.19728 4.26084 8.55201 4.15012 9.15334 3.9294C9.72201 3.72471 10.202 3.63995 10.5951 3.67334C11.6606 3.75935 12.461 4.17944 12.9933 4.93629C12.0404 5.51378 11.5691 6.32263 11.5785 7.36025C11.5871 8.16846 11.8802 8.84103 12.4563 9.37504C12.7174 9.6229 13.0089 9.81445 13.3333 9.9505C13.263 10.1546 13.1887 10.35 13.1098 10.5377ZM10.6663 0.919909C10.6663 1.55339 10.4349 2.14486 9.97371 2.69233C9.41716 3.34316 8.74398 3.71924 8.01398 3.65989C8.00468 3.58389 7.99929 3.50391 7.99929 3.41986C7.99929 2.81172 8.26396 2.16089 8.73398 1.62875C8.96864 1.35932 9.26708 1.13529 9.62899 0.956579C9.99012 0.780533 10.3317 0.683176 10.653 0.666504C10.6624 0.75119 10.6663 0.83589 10.6663 0.919909Z" fill="white"/>
</svg>
