<svg width="16" height="16" viewBox="0 0 16 16" fill="none" xmlns="http://www.w3.org/2000/svg">
<path d="M8 16C12.4183 16 16 12.4183 16 8C16 3.58172 12.4183 0 8 0C3.58172 0 0 3.58172 0 8C0 12.4183 3.58172 16 8 16Z" fill="#0052FF"/>
<path d="M8.06719 5.65359C9.00906 5.65359 9.75625 6.23453 10.04 7.09844H11.9375C11.5938 5.25141 10.0698 4 8.08234 4C5.82531 4 4.0625 5.71328 4.0625 8.00766C4.0625 10.302 5.78125 12 8.08234 12C10.0253 12 11.5795 10.7486 11.9236 8.88625H10.0398C9.77078 9.75031 9.02422 10.3464 8.08172 10.3464C6.78125 10.3464 5.86984 9.34812 5.86984 8.00766C5.87047 6.65187 6.76719 5.65359 8.06719 5.65359Z" fill="white"/>
</svg>
