<svg width="17" height="16" viewBox="0 0 17 16" fill="none" xmlns="http://www.w3.org/2000/svg">
<path d="M13.34 8.11475C13.34 7.75725 13.3079 7.4135 13.2483 7.0835H8.5V9.036H11.2133C11.0942 9.66391 10.7367 10.1956 10.2004 10.5531V11.8227H11.8367C12.79 10.9427 13.34 9.65016 13.34 8.11475Z" fill="#4285F4"/>
<path d="M8.50001 13.0421C9.86126 13.0421 11.0025 12.5929 11.8367 11.8229L10.2004 10.5533C9.75126 10.8558 9.17834 11.0391 8.50001 11.0391C7.18918 11.0391 6.07543 10.1546 5.67668 8.96289H3.99918V10.2646C4.82876 11.91 6.52918 13.0421 8.50001 13.0421Z" fill="#34A853"/>
<path d="M5.67668 8.95822C5.57584 8.65572 5.51626 8.33489 5.51626 8.00031C5.51626 7.66572 5.57584 7.34489 5.67668 7.04239V5.74072H3.99918C3.65543 6.41906 3.45834 7.18447 3.45834 8.00031C3.45834 8.81614 3.65543 9.58156 3.99918 10.2599L5.30543 9.24239L5.67668 8.95822Z" fill="#FBBC05"/>
<path d="M8.50001 4.966C9.24251 4.966 9.90251 5.22266 10.4296 5.71766L11.8733 4.27391C10.9979 3.45808 9.86126 2.9585 8.50001 2.9585C6.52918 2.9585 4.82876 4.09058 3.99918 5.74058L5.67668 7.04225C6.07543 5.85058 7.18918 4.966 8.50001 4.966Z" fill="#EA4335"/>
</svg>
