<svg width="24" height="18" viewBox="0 0 24 18" fill="none" xmlns="http://www.w3.org/2000/svg">
<g clip-path="url(#clip0_955_700)">
<path d="M17.8508 0.713501V10.5239H23.4263V0.713501H17.8508ZM19.1218 3.98959H22.2456V4.5474H19.1218V3.98959ZM22.0777 5.26305V5.80356H19.2892V5.26305H22.0777ZM22.4916 7.16243H18.8903V6.60462H22.4916V7.16243Z" fill="white"/>
<path d="M22.4038 11.7504H18.7448L17.8513 12.7979V17.8788H23.4262V12.6417L22.4038 11.7504ZM19.0956 13.9432L19.502 14.0449C19.41 14.4946 19.318 14.8753 19.2261 15.187L18.8085 15.0286C18.9129 14.6996 19.0086 14.3378 19.0956 13.9432ZM20.242 15.1529C20.1661 14.7598 20.0853 14.4119 19.9998 14.1092V14.6027C19.9998 15.2395 19.9285 15.7145 19.7859 16.028C19.6433 16.3415 19.5048 16.5578 19.3704 16.6767C19.261 16.5762 19.1184 16.4581 18.9427 16.3226C19.3405 15.9486 19.5319 15.3619 19.5169 14.5627V13.0201H20.0014V14.0806L20.4115 13.9774C20.5035 14.2858 20.5905 14.6375 20.6725 15.0324L20.242 15.1529ZM22.3221 16.6227H21.8355V14.9892L21.4328 15.1114C21.3615 14.8065 21.2695 14.4821 21.1569 14.1384V16.5583H20.6725V13.0352H21.1569V14.0487L21.5312 13.9432C21.6232 14.2099 21.7238 14.5384 21.8333 14.9286V13.005H22.3177L22.3221 16.6227Z" fill="white"/>
<path d="M15.9078 5.59991V0.687134H0.000732422V6.24258L1.96418 7.29011L0.000732422 8.42195V11.7408H10.2265V12.9688H0.000732422V17.8816H15.9078V15.312H14.8116L15.9078 14.0266V6.82797H5.682V5.59991H15.9078Z" fill="white"/>
</g>
<defs>
<clipPath id="clip0_955_700">
<rect width="24" height="18" fill="white"/>
</clipPath>
</defs>
</svg>
