<svg width="20" height="20" viewBox="0 0 20 20" fill="currentColor" xmlns="http://www.w3.org/2000/svg">
<path fill-rule="evenodd" clip-rule="evenodd" d="M18.5333 0.666635C18.5333 0.372083 18.2945 0.133301 18 0.133301C17.7054 0.133301 17.4666 0.372083 17.4666 0.666635V1.46664H16.6666C16.3721 1.46664 16.1333 1.70541 16.1333 1.99997C16.1333 2.29452 16.3721 2.53331 16.6666 2.53331H17.4666V3.33331C17.4666 3.62785 17.7054 3.86664 18 3.86664C18.2945 3.86664 18.5333 3.62785 18.5333 3.33331V2.53331H19.3333C19.6278 2.53331 19.8666 2.29452 19.8666 1.99997C19.8666 1.70541 19.6278 1.46664 19.3333 1.46664H18.5333V0.666635ZM15.8048 4.19523C16.065 4.45557 16.065 4.87768 15.8048 5.13804L14.4714 6.47137C14.211 6.73172 13.7889 6.73172 13.5286 6.47137C13.2682 6.21103 13.2682 5.78892 13.5286 5.52856L14.8618 4.19524C15.1222 3.93488 15.5444 3.93488 15.8048 4.19523ZM13.1381 6.86189C13.3984 7.12224 13.3984 7.54436 13.1381 7.80471L3.8047 17.138C3.54435 17.3984 3.12224 17.3984 2.8619 17.138C2.60154 16.8777 2.60154 16.4556 2.8619 16.1952L12.1952 6.86189C12.4556 6.60155 12.8777 6.60155 13.1381 6.86189ZM18 6.79997C18.2945 6.79997 18.5333 7.03875 18.5333 7.33331V8.13331H19.3333C19.6278 8.13331 19.8666 8.37208 19.8666 8.66664C19.8666 8.96119 19.6278 9.19997 19.3333 9.19997H18.5333V9.99997C18.5333 10.2945 18.2945 10.5333 18 10.5333C17.7054 10.5333 17.4666 10.2945 17.4666 9.99997V9.19997H16.6666C16.3721 9.19997 16.1333 8.96119 16.1333 8.66664C16.1333 8.37208 16.3721 8.13331 16.6666 8.13331H17.4666V7.33331C17.4666 7.03875 17.7054 6.79997 18 6.79997ZM11.8667 0.666635C11.8667 0.372083 11.6279 0.133301 11.3333 0.133301C11.0388 0.133301 10.8 0.372083 10.8 0.666635V1.46664H9.99999C9.70543 1.46664 9.46665 1.70541 9.46665 1.99997C9.46665 2.29452 9.70543 2.53331 9.99999 2.53331H10.8V3.33331C10.8 3.62785 11.0388 3.86664 11.3333 3.86664C11.6279 3.86664 11.8667 3.62785 11.8667 3.33331V2.53331H12.6667C12.9612 2.53331 13.2 2.29452 13.2 1.99997C13.2 1.70541 12.9612 1.46664 12.6667 1.46664H11.8667V0.666635Z" fill="#AF06FF"/>
<rect width="20" height="20" fill="white" fill-opacity="0.01"/>
</svg>
