<svg width="18" height="18" viewBox="0 0 18 18" fill="none" xmlns="http://www.w3.org/2000/svg">
<rect x="1" y="1" width="16" height="16" rx="8" fill="white"/>
<path d="M16.6094 9C16.6094 13.2025 13.2025 16.6094 9 16.6094C4.79746 16.6094 1.39062 13.2025 1.39062 9C1.39062 4.79746 4.79746 1.39062 9 1.39062C13.2025 1.39062 16.6094 4.79746 16.6094 9Z" fill="#5741D9" stroke="white" stroke-width="0.78125"/>
<path d="M5.00218 10.1317C5.00218 9.97941 5.00484 9.82722 5.00124 9.67487C4.99413 9.3808 5.01543 9.08673 5.06484 8.79675C5.14921 8.31019 5.3025 7.85081 5.55312 7.42597C5.97343 6.71237 6.56609 6.18769 7.3125 5.83597C7.64214 5.67831 7.99311 5.56981 8.35421 5.51394C8.54312 5.48519 8.73281 5.46175 8.92515 5.46347C9.74234 5.46956 10.5033 5.67144 11.1908 6.12222C11.8644 6.56425 12.37 7.14909 12.6737 7.90019C12.8139 8.2531 12.907 8.62295 12.9506 9.00019C13.002 9.41706 13.0045 9.83566 12.9975 10.2552C12.9931 10.4814 12.9941 10.7083 12.9905 10.9339C12.9887 11.0322 12.9853 11.1307 12.9592 11.2272C12.8573 11.6022 12.4292 11.7728 12.1155 11.5649C11.9748 11.4727 11.9058 11.3369 11.8811 11.1742C11.8637 11.0655 11.855 10.9555 11.855 10.8453V9.47987C11.855 9.30144 11.7994 9.143 11.6775 9.01112C11.4642 8.78222 11.137 8.77347 10.8977 8.98503C10.7636 9.10425 10.7027 9.25566 10.6897 9.42972C10.6845 9.49503 10.6827 9.56019 10.6827 9.6255C10.6817 10.1277 10.6836 10.6289 10.68 11.1311C10.6773 11.4157 10.4612 11.6333 10.1709 11.6533C10.0373 11.6633 9.9047 11.6231 9.79912 11.5405C9.69353 11.458 9.62253 11.339 9.6 11.2069C9.58767 11.131 9.58187 11.0541 9.58265 10.9772C9.58265 10.4724 9.58359 9.96769 9.58265 9.46284C9.58497 9.29678 9.52143 9.13656 9.40593 9.01722C9.16656 8.76566 8.80625 8.77347 8.5739 9.03206C8.45984 9.15831 8.41031 9.30534 8.41031 9.47331C8.41031 9.97206 8.40937 10.4716 8.41031 10.9702C8.41031 11.0989 8.39468 11.2252 8.34156 11.3435C8.29909 11.4421 8.22747 11.5254 8.13631 11.5822C8.04515 11.639 7.93882 11.6665 7.83156 11.6611C7.61828 11.6541 7.43812 11.5205 7.3564 11.306C7.32474 11.2217 7.30885 11.1323 7.30953 11.0422C7.31036 10.5592 7.31005 10.0762 7.30859 9.59316C7.30859 9.48612 7.30421 9.37816 7.27203 9.27456C7.1989 9.03691 7.04046 8.8855 6.79593 8.8455C6.54703 8.80456 6.3625 8.92206 6.22421 9.12222C6.15812 9.218 6.13625 9.32534 6.13625 9.43987C6.13625 9.89821 6.13656 10.3565 6.13718 10.8149C6.13718 10.9497 6.13984 11.0847 6.10937 11.2178C6.0589 11.4389 5.84656 11.68 5.52546 11.6564C5.30437 11.6399 5.09203 11.4571 5.03031 11.223C5.00947 11.1402 4.99928 11.0551 5 10.9697C5.00265 10.6885 5.00265 10.4102 5.00171 10.1316L5.00218 10.1317Z" fill="white"/>
<path fill-rule="evenodd" clip-rule="evenodd" d="M9.00001 0.715332C13.6333 0.715332 17.3884 4.42407 17.3884 9.00012C17.3884 13.5762 13.6333 17.2849 9.00001 17.2849C4.36676 17.2849 0.611664 13.5762 0.611664 9.00012C0.611664 4.42407 4.36676 0.715332 9.00001 0.715332Z" fill="url(#paint0_radial_1492_4888)"/>
<path d="M5.94286 7.11345C7.63036 5.48562 10.3697 5.48562 12.0572 7.11345L12.2603 7.31086C12.3455 7.39177 12.3455 7.52446 12.2603 7.60536L11.5657 8.27526C11.5231 8.31734 11.4543 8.31734 11.4117 8.27526L11.1332 8.00666C9.95354 6.87073 8.0465 6.87073 6.86689 8.00666L6.56871 8.29468C6.52611 8.33675 6.4573 8.33675 6.41471 8.29468L5.72004 7.62478C5.63485 7.54387 5.63485 7.41119 5.72004 7.33028L5.94286 7.11345ZM13.4957 8.49857L14.1149 9.09403C14.2001 9.17494 14.2001 9.30763 14.1149 9.38853L11.3265 12.0779C11.2413 12.1588 11.1037 12.1588 11.0217 12.0779L9.04262 10.1685C9.02296 10.1491 8.98691 10.1491 8.96725 10.1685L6.98813 12.0779C6.90293 12.1588 6.76531 12.1588 6.68339 12.0779L3.88509 9.38853C3.7999 9.30763 3.7999 9.17494 3.88509 9.09403L4.50439 8.49857C4.58958 8.41766 4.72721 8.41766 4.80912 8.49857L6.78825 10.408C6.80791 10.4274 6.84395 10.4274 6.86361 10.408L8.84274 8.49857C8.92793 8.41766 9.06555 8.41766 9.14747 8.49857L11.1266 10.408C11.1463 10.4274 11.1823 10.4274 11.202 10.408L13.1811 8.49857C13.2728 8.41766 13.4105 8.41766 13.4957 8.49857Z" fill="white"/>
<defs>
<radialGradient id="paint0_radial_1492_4888" cx="0" cy="0" r="1" gradientUnits="userSpaceOnUse" gradientTransform="translate(0.611716 9.00038) scale(16.7767 16.5696)">
<stop stop-color="#5D9DF6"/>
<stop offset="1" stop-color="#006FFF"/>
</radialGradient>
</defs>
</svg>
