<?xml version="1.0" standalone="no"?>
<!DOCTYPE svg PUBLIC "-//W3C//DTD SVG 1.1//EN" "http://www.w3.org/Graphics/SVG/1.1/DTD/svg11.dtd" >
<svg xmlns="http://www.w3.org/2000/svg" xmlns:xlink="http://www.w3.org/1999/xlink" version="1.1">
<metadata>
Created by FontForge 20200314 at Mon Mar 24 20:05:06 1997
 By Unknown
(c)1997 Martin P. Pfeiffer &#60;wamozart@teleport.com&#62;
</metadata>
<defs>
<font id="Midnight" horiz-adv-x="1400" >
  <font-face 
    font-family="Midnight"
    font-weight="400"
    font-stretch="normal"
    units-per-em="1400"
    panose-1="0 0 4 0 0 0 0 0 0 0"
    ascent="1100"
    descent="-300"
    x-height="700"
    cap-height="900"
    bbox="-110 -300 1151 1100"
    underline-thickness="20"
    underline-position="-143"
    unicode-range="U+0020-F002"
  />
<missing-glyph horiz-adv-x="700" 
d="M88 0v1100h525v-1100h-525zM175 88h350v924h-350v-924z" />
    <glyph glyph-name=".notdef" horiz-adv-x="700" 
d="M88 0v1100h525v-1100h-525zM175 88h350v924h-350v-924z" />
    <glyph glyph-name=".null" horiz-adv-x="0" 
 />
    <glyph glyph-name="nonmarkingreturn" horiz-adv-x="300" 
 />
    <glyph glyph-name="space" unicode=" " horiz-adv-x="300" 
 />
    <glyph glyph-name="exclam" unicode="!" horiz-adv-x="327" 
d="M213 300h-100v600h100v-600zM213 0h-100v200h100v-200z" />
    <glyph glyph-name="quotedbl" unicode="&#x22;" horiz-adv-x="476" 
d="M388 700h-100v300h100v-300zM188 700h-100v300h100v-300z" />
    <glyph glyph-name="numbersign" unicode="#" horiz-adv-x="900" 
d="M865 600h-165l-67 -300h132v-100h-154l-45 -200h-102l44 200h-227l-45 -200h-102l44 200h-143v100h165l67 300h-132v100h154l45 200h102l-44 -200h227l45 200h102l-44 -200h143v-100zM597 600h-227l-67 -300h227z" />
    <glyph glyph-name="dollar" unicode="$" horiz-adv-x="600" 
d="M554 200q0 -77 -67 -138q-57 -51 -140 -73v-89h-100v76q-107 0 -207 24v100q99 -35 207 -35v358q-100 63 -143 112q-64 72 -64 165q0 77 67 138q57 51 140 73v89h100v-76q107 0 207 -24v-100q-99 35 -207 35v-358q100 -63 143 -112q64 -72 64 -165zM247 542v275
q-107 -42 -107 -117q0 -80 107 -158zM454 200q0 80 -107 158v-275q107 42 107 117z" />
    <glyph glyph-name="percent" unicode="%" horiz-adv-x="900" 
d="M449 724q0 -83 -58.5 -141.5t-141.5 -58.5t-141.5 58.5t-58.5 141.5t58.5 141.5t141.5 58.5t141.5 -58.5t58.5 -141.5zM349 724q0 41 -29.5 70.5t-70.5 29.5t-70.5 -29.5t-29.5 -70.5t29.5 -70.5t70.5 -29.5t70.5 29.5t29.5 70.5zM757 900l-500 -900h-114l500 900h114z
M851 176q0 -83 -58.5 -141.5t-141.5 -58.5t-141.5 58.5t-58.5 141.5t58.5 141.5t141.5 58.5t141.5 -58.5t58.5 -141.5zM751 176q0 41 -29.5 70.5t-70.5 29.5t-70.5 -29.5t-29.5 -70.5t29.5 -70.5t70.5 -29.5t70.5 29.5t29.5 70.5z" />
    <glyph glyph-name="ampersand" unicode="&#x26;" horiz-adv-x="900" 
d="M872 0h-134l-77 85q-134 -109 -306 -109q-124 0 -212 65.5t-88 158.5q0 106 69 187q50 60 155 121q-124 134 -124 192q0 93 73 158.5t177 65.5t177 -51t73 -123q0 -90 -66 -160q-47 -50 -151 -108l229 -254q88 119 88 272h100q0 -196 -123 -344zM552 750q0 36 -42 66
q-45 30 -105 30q-61 0 -104 -44.5t-43 -101.5q0 -23 111 -142q91 50 129 85q54 49 54 107zM598 155l-250 278q-92 -52 -134 -97q-56 -60 -56 -136q0 -57 58 -101.5t139 -44.5q122 0 243 101z" />
    <glyph glyph-name="quotesingle" unicode="'" horiz-adv-x="248" 
d="M174 700h-100v300h100v-300z" />
    <glyph glyph-name="parenleft" unicode="(" horiz-adv-x="400" 
d="M357 -200h-79q-107 160 -148 283q-45 134 -45 317t45 317q41 123 148 283h79q-85 -166 -123 -290q-46 -152 -46 -310t46 -310q38 -124 123 -290z" />
    <glyph glyph-name="parenright" unicode=")" horiz-adv-x="400" 
d="M315 400q0 -183 -45 -317q-41 -123 -148 -283h-79q85 166 123 290q46 152 46 310t-46 310q-38 124 -123 290h79q107 -160 148 -283q45 -134 45 -317z" />
    <glyph glyph-name="asterisk" unicode="*" horiz-adv-x="600" 
d="M550 700h-163l81 -142l-86 -50l-82 142l-82 -142l-86 50l81 142h-163v100h163l-81 142l86 50l82 -142l82 142l86 -50l-81 -142h163v-100z" />
    <glyph glyph-name="plus" unicode="+" horiz-adv-x="600" 
d="M550 400h-200v-200h-100v200h-200v100h200v200h100v-200h200v-100z" />
    <glyph glyph-name="comma" unicode="," horiz-adv-x="318" 
d="M209 0q0 -83 -44 -141.5t-106 -58.5v50q41 0 70.5 44t29.5 106h-50v200h100v-200z" />
    <glyph glyph-name="hyphen" unicode="-" horiz-adv-x="500" 
d="M445 400h-390v100h390v-100z" />
    <glyph glyph-name="hyphen" unicode="&#x2010;" horiz-adv-x="500" 
d="M445 400h-390v100h390v-100z" />
    <glyph glyph-name="period" unicode="." horiz-adv-x="318" 
d="M209 0h-100v200h100v-200z" />
    <glyph glyph-name="slash" unicode="/" horiz-adv-x="500" 
d="M521 900l-434 -1000h-108l434 1000h108z" />
    <glyph glyph-name="zero" unicode="0" horiz-adv-x="700" 
d="M654 450q0 -196 -89 -335t-215 -139t-215 139t-89 335t89 335t215 139t215 -139t89 -335zM551 450q0 159 -59 272t-142 113t-142 -113t-59 -272t59 -272t142 -113t142 113t59 272z" />
    <glyph glyph-name="one" unicode="1" horiz-adv-x="700" 
d="M453 0h-100v700h-226v100h126q41 0 70.5 29.5t29.5 70.5h100v-900z" />
    <glyph glyph-name="two" unicode="2" horiz-adv-x="700" 
d="M639 0h-606q0 183 130 314q7 7 243 184q130 99 130 202q0 56 -58.5 95.5t-141.5 39.5q-84 0 -143.5 -39.5t-59.5 -95.5h-100q0 93 88.5 158.5t214.5 65.5t214.5 -65.5t88.5 -158.5q0 -129 -110 -230l-218 -162q-131 -99 -164 -208h492v-100z" />
    <glyph glyph-name="three" unicode="3" horiz-adv-x="686" 
d="M650 250q0 -113 -90 -193.5t-217 -80.5t-217 65.5t-90 158.5h100q0 -56 60.5 -95.5t146.5 -39.5q84 0 144 54t60 131q0 62 -45 106t-109 44h-150v100h150q64 0 109 44t45 106q0 77 -60 131t-144 54q-86 0 -146.5 -39.5t-60.5 -95.5h-100q0 93 90 158.5t217 65.5
t217 -80.5t90 -193.5q0 -125 -103 -200q103 -75 103 -200z" />
    <glyph glyph-name="four" unicode="4" horiz-adv-x="700" 
d="M659 300h-100v-300h-100v300h-428v100l419 500h109v-500h100v-100zM459 400v350l-301 -350h301z" />
    <glyph glyph-name="five" unicode="5" horiz-adv-x="700" 
d="M648 300q0 -134 -89 -229t-215 -95t-215 65.5t-89 158.5h100q0 -56 59.5 -95.5t144.5 -39.5q83 0 142 69t59 166q0 83 -59 141.5t-142 58.5h-304v400h504v-100h-404v-200h204q126 0 215 -88t89 -212z" />
    <glyph glyph-name="six" unicode="6" horiz-adv-x="700" 
d="M652 300q0 -134 -88.5 -229t-213.5 -95t-213.5 95t-88.5 229v250q0 145 103.5 247.5t248.5 102.5h150v-100h-150q-104 0 -178 -73.5t-74 -176.5v-27q86 77 202 77q125 0 213.5 -88t88.5 -212zM549 300q0 83 -58.5 141.5t-140.5 58.5t-140.5 -58.5t-58.5 -141.5
q0 -97 58.5 -166t140.5 -69t140.5 69t58.5 166z" />
    <glyph glyph-name="seven" unicode="7" horiz-adv-x="700" 
d="M658 850q0 -150 -79 -278q-74 -112 -148 -223q-79 -150 -79 -349h-100q0 203 73 355q21 44 140 220q80 118 91 225h-510v100h612v-50z" />
    <glyph glyph-name="eight" unicode="8" horiz-adv-x="697" 
d="M649 250q0 -113 -88 -193.5t-213 -80.5t-213 80.5t-88 193.5q0 125 120 200q-120 75 -120 200q0 113 88 193.5t213 80.5t213 -80.5t88 -193.5q0 -125 -120 -200q120 -75 120 -200zM546 650q0 77 -58 131t-140 54t-140 -54t-58 -131q0 -62 58 -106t140 -44t140 44t58 106z
M546 250q0 62 -58 106t-140 44t-140 -44t-58 -106q0 -77 58 -131t140 -54t140 54t58 131z" />
    <glyph glyph-name="nine" unicode="9" horiz-adv-x="706" 
d="M650 350q0 -145 -101 -247.5t-246 -102.5h-150v100h150q103 0 175 73t72 177v25q-84 -75 -197 -75q-123 0 -210 88t-87 212q0 134 87 229t210 95t210 -95t87 -229v-250zM547 600q0 97 -57 166t-137 69t-137 -69t-57 -166q0 -83 57 -141.5t137 -58.5t137 58.5t57 141.5z
" />
    <glyph glyph-name="colon" unicode=":" horiz-adv-x="318" 
d="M209 500h-100v200h100v-200zM209 0h-100v200h100v-200z" />
    <glyph glyph-name="semicolon" unicode=";" horiz-adv-x="318" 
d="M209 500h-100v200h100v-200zM209 0q0 -83 -44 -141.5t-106 -58.5v50q41 0 70.5 44t29.5 106h-50v200h100v-200z" />
    <glyph glyph-name="less" unicode="&#x3c;" horiz-adv-x="600" 
d="M540 196l-480 200v108l480 200v-108l-345 -146l345 -146v-108z" />
    <glyph glyph-name="equal" unicode="=" horiz-adv-x="700" 
d="M650 500h-600v100h600v-100zM650 300h-600v100h600v-100z" />
    <glyph glyph-name="greater" unicode="&#x3e;" horiz-adv-x="600" 
d="M540 396l-480 -200v108l345 146l-345 146v108l480 -200v-108z" />
    <glyph glyph-name="question" unicode="?" horiz-adv-x="500" 
d="M420 700q0 -53 -45 -103q-71 -77 -85 -100q-45 -77 -45 -197h-100q0 123 45 219q28 62 82 122q45 50 45 59q0 56 -32 99q-36 47 -90 47q-69 0 -125 -46v100q56 24 125 24q93 0 159 -65.5t66 -158.5zM245 0h-100v200h100v-200z" />
    <glyph glyph-name="at" unicode="@" horiz-adv-x="900" 
d="M850 300q0 -83 -44 -141.5t-106 -58.5q-63 0 -107 60q-59 -60 -143 -60q-83 0 -141.5 58.5t-58.5 141.5t58.5 141.5t141.5 58.5t141.5 -58.5t58.5 -141.5q0 -41 14.5 -70.5t35.5 -29.5t37 29.5t16 70.5q0 127 -89 229q-92 105 -214 105q-121 0 -211 -105
q-86 -101 -86 -229q0 -125 86.5 -212.5t210.5 -87.5h200v-100h-200q-166 0 -283 117t-117 283q0 168 118 294t282 126t282 -126t118 -294zM547 300q0 42 -28 71t-69 29t-69 -29t-28 -71t28 -71t69 -29t69 29t28 71z" />
    <glyph glyph-name="A" unicode="A" horiz-adv-x="800" 
d="M269 400h264l-130 360h-4zM569 300h-336l-109 -300h-106l328 900h110l328 -900h-106z" />
    <glyph glyph-name="B" unicode="B" horiz-adv-x="700" 
d="M649 250q0 -104 -88 -177t-212 -73h-256v900h256q83 0 141.5 -58.5t58.5 -141.5q0 -129 -92 -217q86 -27 139 -90.5t53 -142.5zM446 700q0 42 -28 71t-69 29h-156v-300h56q83 0 140 58.5t57 141.5zM546 250q0 62 -57 106t-140 44h-156v-300h156q83 0 140 44t57 106z" />
    <glyph glyph-name="C" unicode="C" horiz-adv-x="800" 
d="M749 200q0 -85 -86 -153q-90 -71 -211 -71q-164 0 -281 144q-116 141 -116 330t116.5 331.5t280.5 142.5q121 0 211 -71q86 -68 86 -153h-100q0 45 -57 88q-62 47 -140 47q-121 0 -209 -120q-85 -116 -85 -265t85 -265q88 -120 209 -120q78 0 140 47q57 43 57 88h100z
" />
    <glyph glyph-name="D" unicode="D" horiz-adv-x="862" 
d="M740 450q0 -186 -117 -318t-283 -132h-238v900h238q166 0 283 -132t117 -318zM637 450q0 145 -86.5 247.5t-210.5 102.5h-138v-700h138q124 0 210.5 102.5t86.5 247.5z" />
    <glyph glyph-name="E" unicode="E" horiz-adv-x="600" 
d="M536 0h-428v900h428v-100h-328v-300h228v-100h-228v-300h328v-100z" />
    <glyph glyph-name="F" unicode="F" horiz-adv-x="600" 
d="M565 800h-357v-300h257v-100h-257v-400h-100v900h457v-100z" />
    <glyph glyph-name="G" unicode="G" horiz-adv-x="800" 
d="M708 200q0 -87 -75 -153q-80 -71 -199 -71q-161 0 -270 144q-104 138 -104 330t104 330q109 144 270 144q119 0 199 -71q75 -66 75 -153h-100q0 47 -46 88q-51 47 -128 47q-119 0 -198 -120q-73 -112 -73 -265t73 -265q79 -120 198 -120q77 0 128 47q46 41 46 88v200
h-174v100h274v-300z" />
    <glyph glyph-name="H" unicode="H" horiz-adv-x="800" 
d="M705 0h-100v400h-408v-400h-100v900h100v-400h408v400h100v-900z" />
    <glyph glyph-name="I" unicode="I" horiz-adv-x="326" 
d="M214 0h-100v900h100v-900z" />
    <glyph glyph-name="J" unicode="J" horiz-adv-x="600" 
d="M511 200q0 -86 -71 -153q-73 -71 -174 -71t-174 71q-71 67 -71 153h100q0 -45 41 -88q46 -47 104 -47t104 47q41 43 41 88v700h100v-700z" />
    <glyph glyph-name="K" unicode="K" horiz-adv-x="700" 
d="M695 0h-142l-358 358v-358h-100v900h100v-358l358 358h142l-450 -450z" />
    <glyph glyph-name="L" unicode="L" horiz-adv-x="700" 
d="M676 0h-581v900h100v-800h481v-100z" />
    <glyph glyph-name="M" unicode="M" horiz-adv-x="1000" 
d="M910 0h-100v768l-309 -393l-309 393v-768h-100v900h117l292 -375l292 375h117v-900z" />
    <glyph glyph-name="N" unicode="N" horiz-adv-x="900" 
d="M805 0h-113l-497 754v-754h-100v900h113l497 -754v754h100v-900z" />
    <glyph glyph-name="O" unicode="O" horiz-adv-x="900" 
d="M851 450q0 -189 -118 -330q-119 -144 -283 -144t-283 144q-118 141 -118 330t118.5 331.5t282.5 142.5t282.5 -142.5t118.5 -331.5zM748 450q0 149 -87 265q-89 120 -211 120t-211 -120q-87 -116 -87 -265t87 -265q89 -120 211 -120t211 120q87 116 87 265z" />
    <glyph glyph-name="P" unicode="P" horiz-adv-x="700" 
d="M644 600q0 -124 -88 -212t-212 -88h-136v-300h-100v900h236q124 0 212 -88t88 -212zM541 600q0 83 -57 141.5t-140 58.5h-136v-400h136q83 0 140 58.5t57 141.5z" />
    <glyph glyph-name="Q" unicode="Q" horiz-adv-x="900" 
d="M851 450q0 -123 -55 -226.5t-146 -163.5v-60q0 -41 29.5 -70.5t70.5 -29.5h100v-100h-100q-83 0 -141.5 58.5t-58.5 141.5v14q-48 -14 -100 -14q-166 0 -283.5 132t-117.5 318t117.5 318t283.5 132t283.5 -132t117.5 -318zM751 450q0 145 -88.5 247.5t-212.5 102.5
t-212.5 -102.5t-88.5 -247.5t88.5 -247.5t212.5 -102.5t212.5 102.5t88.5 247.5z" />
    <glyph glyph-name="R" unicode="R" horiz-adv-x="700" 
d="M653 0h-128l-161 302q-19 -2 -32 -2h-122v-300h-100v900h222q124 0 212 -88t88 -212q0 -86 -45 -158t-120 -110zM532 600q0 83 -58.5 141.5t-141.5 58.5h-122v-400h122q83 0 141.5 58.5t58.5 141.5z" />
    <glyph glyph-name="S" unicode="S" horiz-adv-x="700" 
d="M641 200q0 -86 -83 -153q-87 -71 -207 -71q-121 0 -207 71q-83 67 -83 153h100q0 -46 54 -88q58 -47 136 -47t135 47q52 42 52 88q0 83 -124 157q-114 66 -229 132q-124 89 -124 211q0 86 83 153q86 71 207 71q120 0 207 -71q83 -67 83 -153h-100q0 46 -54 88
q-58 47 -136 47t-135 -47q-52 -42 -52 -88q0 -83 124 -157q114 -65 229 -131q124 -90 124 -212z" />
    <glyph glyph-name="T" unicode="T" horiz-adv-x="800" 
d="M782 800h-332v-800h-100v800h-332v100h764v-100z" />
    <glyph glyph-name="U" unicode="U" horiz-adv-x="800" 
d="M703 300q0 -132 -79 -224q-85 -100 -223 -100t-223 100q-79 92 -79 224v600h100v-600q0 -92 49 -159q56 -76 153 -76t153 76q49 67 49 159v600h100v-600z" />
    <glyph glyph-name="V" unicode="V" horiz-adv-x="800" 
d="M775 900l-322 -900h-106l-322 900h106l267 -760h4l267 760h106z" />
    <glyph glyph-name="W" unicode="W" horiz-adv-x="1000" 
d="M980 900l-215 -900h-102l-162 760h-2l-162 -760h-102l-215 900h102l163 -760h2l162 760h102l162 -760h2l163 760h102z" />
    <glyph glyph-name="X" unicode="X" horiz-adv-x="768" 
d="M760 0h-120l-256 385l-256 -385h-120l311 450l-311 450h120l256 -385l256 385h120l-311 -450z" />
    <glyph glyph-name="Y" unicode="Y" horiz-adv-x="800" 
d="M782 900l-332 -612v-288h-100v288l-332 612h112l270 -488l270 488h112z" />
    <glyph glyph-name="Z" unicode="Z" horiz-adv-x="700" 
d="M671 900l-472 -800h465v-100h-635l472 800h-465v100h635z" />
    <glyph glyph-name="bracketleft" unicode="[" horiz-adv-x="300" 
d="M200 -200h-200v1200h200v-100h-100v-1000h100v-100z" />
    <glyph glyph-name="backslash" unicode="\" horiz-adv-x="600" 
d="M504 -100h-108l-400 1000h108z" />
    <glyph glyph-name="bracketright" unicode="]" horiz-adv-x="300" 
d="M200 -200h-200v100h100v1000h-100v100h200v-1200z" />
    <glyph glyph-name="asciicircum" unicode="^" horiz-adv-x="600" 
d="M503 300h-106l-147 442l-147 -442h-106l200 600h106z" />
    <glyph glyph-name="underscore" unicode="_" horiz-adv-x="500" 
d="M500 -100h-500v100h500v-100z" />
    <glyph glyph-name="grave" unicode="`" horiz-adv-x="400" 
d="M300 800h-100l-200 200h200z" />
    <glyph glyph-name="a" unicode="a" horiz-adv-x="700" 
d="M664 0h-100v60q-137 -80 -258 -80q-102 0 -180 68t-78 152q0 82 91.5 141t216.5 59h208v100q0 55 -61 94.5t-147 39.5q-65 0 -111.5 -24.5t-46.5 -59.5h-100q0 70 75.5 120t182.5 50q128 0 218 -64.5t90 -155.5v-500zM564 200v100h-208q-83 0 -144 -29.5t-61 -70.5
q0 -44 46 -88q50 -46 109 -46q99 0 181 46q77 44 77 88z" />
    <glyph glyph-name="b" unicode="b" horiz-adv-x="700" 
d="M648 350q0 -153 -84 -261.5t-203 -108.5q-104 0 -183 87v-67h-100v900h100v-267q79 87 183 87q119 0 203 -108.5t84 -261.5zM545 350q0 118 -54 201t-130 83t-129.5 -83t-53.5 -201t53.5 -201t129.5 -83t130 83t54 201z" />
    <glyph glyph-name="c" unicode="c" horiz-adv-x="600" 
d="M569 150q0 -70 -62.5 -120t-151.5 -50q-130 0 -222 108.5t-92 261.5t92 261.5t222 108.5q89 0 151.5 -50t62.5 -120h-100q0 35 -33.5 59.5t-80.5 24.5q-87 0 -149 -83t-62 -201t62 -201t149 -83q47 0 80.5 24.5t33.5 59.5h100z" />
    <glyph glyph-name="d" unicode="d" horiz-adv-x="700" 
d="M624 0h-100v70q-81 -90 -188 -90q-120 0 -205 108.5t-85 261.5t85 261.5t205 108.5q107 0 188 -90v270h100v-900zM524 350q0 118 -55 201t-133 83q-77 0 -132 -83t-55 -201t55 -201t132 -83q78 0 133 83t55 201z" />
    <glyph glyph-name="e" unicode="e" horiz-adv-x="700" 
d="M653 300h-494q10 -100 55 -162q51 -72 136 -72q121 0 173 134h106q-33 -99 -102 -157q-75 -63 -177 -63q-138 0 -220 113q-76 103 -76 257t76 257q82 113 220 113q139 0 224 -113q79 -104 79 -257v-50zM547 400q-11 99 -58 162q-53 72 -139 72q-85 0 -136 -72
q-45 -62 -55 -162h388z" />
    <glyph glyph-name="f" unicode="f" horiz-adv-x="500" 
d="M479 800q-63 34 -130 34q-54 0 -92 -39.5t-38 -94.5h160v-100h-160v-600h-100v600h-100v100h100q0 93 68.5 156.5t161.5 63.5q70 0 130 -20v-100z" />
    <glyph glyph-name="g" unicode="g" horiz-adv-x="800" 
d="M803 600h-151q51 -69 51 -150q0 -109 -84 -187.5t-205 -82.5l-61 -80h100q124 0 211.5 -55.5t87.5 -134.5q0 -87 -102 -148.5t-247 -61.5t-247 61.5t-102 148.5h100q0 -51 73 -87.5t176 -36.5q102 0 174 36.5t72 87.5q0 37 -57.5 63.5t-138.5 26.5h-300l147 196
q-88 29 -142.5 98t-54.5 156q0 112 88 191t212 79q60 0 114 -20h286v-100zM600 450q0 76 -57.5 130t-139.5 54t-139.5 -54t-57.5 -130t57.5 -130t139.5 -54t139.5 54t57.5 130z" />
    <glyph glyph-name="h" unicode="h" horiz-adv-x="700" 
d="M613 0h-100v500q0 50 -25 88q-32 46 -88 46q-97 0 -158 -76q-55 -68 -55 -158v-400h-100v900h100v-290q70 61 94 76q55 34 119 34q98 0 158 -69q55 -62 55 -151v-500z" />
    <glyph glyph-name="i" unicode="i" horiz-adv-x="280" 
d="M190 800h-100v100h100v-100zM190 0h-100v700h100v-700z" />
    <glyph glyph-name="j" unicode="j" horiz-adv-x="280" 
d="M190 800h-100v100h100v-100zM190 -50q0 -70 -44 -120t-106 -50t-106 50t-44 120v50h100v-50q0 -35 14.5 -59.5t35.5 -24.5t35.5 24.5t14.5 59.5v750h100v-750z" />
    <glyph glyph-name="k" unicode="k" horiz-adv-x="600" 
d="M601 0h-122l-228 325l-61 -66v-259h-100v900h100v-494l274 294h137l-280 -300z" />
    <glyph glyph-name="l" unicode="l" horiz-adv-x="280" 
d="M190 0h-100v900h100v-900z" />
    <glyph glyph-name="m" unicode="m" horiz-adv-x="1273" 
d="M1151 0h-100v500q0 47 -35 88q-39 46 -97 46q-99 0 -168 -76q-64 -70 -64 -158v-400h-100v500q0 43 -54 88.5t-114 45.5q-96 0 -150 -76q-46 -65 -46 -158v-400h-100v700h100v-90q43 38 85 76q48 34 111 34q72 0 144 -42q68 -39 100 -92q124 134 256 134q100 0 168 -69
q64 -65 64 -151v-500z" />
    <glyph glyph-name="n" unicode="n" horiz-adv-x="700" 
d="M613 0h-100v500q0 50 -25 88q-32 46 -88 46q-97 0 -158 -76q-55 -68 -55 -158v-400h-100v700h100v-90q70 61 94 76q55 34 119 34q98 0 158 -69q55 -62 55 -151v-500z" />
    <glyph glyph-name="o" unicode="o" horiz-adv-x="800" 
d="M753 350q0 -147 -104 -257q-106 -113 -249 -113t-249 113q-104 110 -104 257t105 258.5t248 111.5t248 -111.5t105 -258.5zM650 350q0 107 -73 194q-76 90 -177 90t-175.5 -88.5t-74.5 -195.5t73 -194q76 -90 177 -90t177 90q73 87 73 194z" />
    <glyph glyph-name="p" unicode="p" horiz-adv-x="700" 
d="M648 350q0 -153 -84 -261.5t-203 -108.5q-104 0 -183 87v-347h-100v980h100v-67q79 87 183 87q119 0 203 -108.5t84 -261.5zM545 350q0 118 -54 201t-130 83t-129.5 -83t-53.5 -201t53.5 -201t129.5 -83t130 83t54 201z" />
    <glyph glyph-name="q" unicode="q" horiz-adv-x="700" 
d="M617 -280h-100v348q-79 -88 -184 -88q-118 0 -202 108.5t-84 261.5t84 261.5t202 108.5q105 0 184 -88v68h100v-980zM517 350q0 118 -54 201t-130 83t-129.5 -83t-53.5 -201t53.5 -201t129.5 -83t130 83t54 201z" />
    <glyph glyph-name="r" unicode="r" horiz-adv-x="500" 
d="M499 600q-47 34 -98 34q-82 0 -142 -78q-56 -72 -56 -156v-400h-100v700h100v-76q107 96 198 96q55 0 98 -20v-100z" />
    <glyph glyph-name="s" unicode="s" horiz-adv-x="600" 
d="M551 200q0 -84 -76 -152t-178 -68t-178 68t-76 152h100q0 -44 47.5 -89t106.5 -45t107 46q44 43 44 88q0 38 -105 78q-166 65 -195 81q-105 59 -105 141q0 84 76 152t178 68t178 -68t76 -152h-100q0 44 -46 88q-49 46 -108 46t-107 -46q-44 -43 -44 -88q0 -38 105 -78
q166 -65 195 -81q105 -59 105 -141z" />
    <glyph glyph-name="t" unicode="t" horiz-adv-x="600" 
d="M571 0q-87 -20 -176 -20q-114 0 -195 64.5t-81 155.5v400h-100v100h100v200h100v-200h352v-100h-352v-400q0 -56 51.5 -95t124.5 -39q89 0 176 34v-100z" />
    <glyph glyph-name="u" unicode="u" horiz-adv-x="700" 
d="M611 0h-100v90q-72 -63 -92 -76q-54 -34 -118 -34q-98 0 -157 69q-53 62 -53 151v500h100v-500q0 -51 24 -88q30 -46 86 -46q97 0 157 76q53 67 53 158v400h100v-700z" />
    <glyph glyph-name="v" unicode="v" horiz-adv-x="700" 
d="M689 700l-286 -700h-106l-286 700h106l231 -560h4l231 560h106z" />
    <glyph glyph-name="w" unicode="w" horiz-adv-x="1000" 
d="M983 700l-215 -700h-104l-162 560h-2l-162 -560h-104l-215 700h104l162 -560h2l162 560h104l162 -560h2l162 560h104z" />
    <glyph glyph-name="x" unicode="x" horiz-adv-x="700" 
d="M687 0h-122l-214 284l-214 -284h-122l270 350l-270 350h122l214 -284l214 284h122l-270 -350z" />
    <glyph glyph-name="y" unicode="y" horiz-adv-x="700" 
d="M689 700l-286 -700q-45 -111 -162 -188q-139 -92 -326 -92v100q260 0 378 190l-282 690h106l231 -560h4l231 560h106z" />
    <glyph glyph-name="z" unicode="z" horiz-adv-x="600" 
d="M559 700l-345 -600h337v-100h-510l345 600h-337v100h510z" />
    <glyph glyph-name="braceleft" unicode="{" horiz-adv-x="400" 
d="M350 -200q-174 15 -225 109q-35 64 -35 255q0 99 -33 144q-37 49 -132 60v72q95 11 132 60q33 45 33 144q0 190 35 253q51 92 225 107v-92q-112 -9 -143 -88q-17 -43 -17 -176q0 -115 -29 -167q-37 -67 -142 -77q104 -10 142 -79q29 -53 29 -169q0 -133 17 -176
q31 -79 143 -88v-92z" />
    <glyph glyph-name="bar" unicode="|" horiz-adv-x="400" 
d="M200 -200h-100v1200h100v-1200z" />
    <glyph glyph-name="braceright" unicode="}" horiz-adv-x="400" 
d="M475 368q-95 -11 -132 -60q-33 -45 -33 -144q0 -191 -35 -255q-51 -94 -225 -109v92q112 9 143 88q17 43 17 176q0 116 29 169q38 69 142 79q-105 10 -142 77q-29 52 -29 167q0 133 -17 176q-31 79 -143 88v92q174 -15 225 -107q35 -63 35 -253q0 -99 33 -144
q37 -49 132 -60v-72z" />
    <glyph glyph-name="asciitilde" unicode="~" horiz-adv-x="800" 
d="M750 600q0 -83 -58.5 -141.5t-141.5 -58.5q-111 0 -153 52q-23 48 -47 96q-27 52 -100 52q-41 0 -70.5 -29.5t-29.5 -70.5v-100h-100v100q0 83 58.5 141.5t141.5 58.5q111 0 153 -52q23 -48 47 -96q27 -52 100 -52q41 0 70.5 29.5t29.5 70.5v100h100v-100z" />
    <glyph glyph-name="Adieresis" unicode="&#xc4;" 
 />
    <glyph glyph-name="Aring" unicode="&#xc5;" 
 />
    <glyph glyph-name="Ccedilla" unicode="&#xc7;" 
 />
    <glyph glyph-name="Eacute" unicode="&#xc9;" 
 />
    <glyph glyph-name="Ntilde" unicode="&#xd1;" 
 />
    <glyph glyph-name="Odieresis" unicode="&#xd6;" 
 />
    <glyph glyph-name="Udieresis" unicode="&#xdc;" 
 />
    <glyph glyph-name="aacute" unicode="&#xe1;" 
 />
    <glyph glyph-name="agrave" unicode="&#xe0;" 
 />
    <glyph glyph-name="acircumflex" unicode="&#xe2;" 
 />
    <glyph glyph-name="adieresis" unicode="&#xe4;" 
 />
    <glyph glyph-name="atilde" unicode="&#xe3;" 
 />
    <glyph glyph-name="aring" unicode="&#xe5;" 
 />
    <glyph glyph-name="ccedilla" unicode="&#xe7;" 
 />
    <glyph glyph-name="eacute" unicode="&#xe9;" 
 />
    <glyph glyph-name="egrave" unicode="&#xe8;" 
 />
    <glyph glyph-name="ecircumflex" unicode="&#xea;" 
 />
    <glyph glyph-name="edieresis" unicode="&#xeb;" 
 />
    <glyph glyph-name="iacute" unicode="&#xed;" 
 />
    <glyph glyph-name="igrave" unicode="&#xec;" 
 />
    <glyph glyph-name="icircumflex" unicode="&#xee;" 
 />
    <glyph glyph-name="idieresis" unicode="&#xef;" 
 />
    <glyph glyph-name="ntilde" unicode="&#xf1;" 
 />
    <glyph glyph-name="oacute" unicode="&#xf3;" 
 />
    <glyph glyph-name="ograve" unicode="&#xf2;" 
 />
    <glyph glyph-name="ocircumflex" unicode="&#xf4;" 
 />
    <glyph glyph-name="odieresis" unicode="&#xf6;" 
 />
    <glyph glyph-name="otilde" unicode="&#xf5;" 
 />
    <glyph glyph-name="uacute" unicode="&#xfa;" 
 />
    <glyph glyph-name="ugrave" unicode="&#xf9;" 
 />
    <glyph glyph-name="ucircumflex" unicode="&#xfb;" 
 />
    <glyph glyph-name="udieresis" unicode="&#xfc;" 
 />
    <glyph glyph-name="dagger" unicode="&#x2020;" 
 />
    <glyph glyph-name="degree" unicode="&#xb0;" 
 />
    <glyph glyph-name="cent" unicode="&#xa2;" 
 />
    <glyph glyph-name="sterling" unicode="&#xa3;" 
 />
    <glyph glyph-name="section" unicode="&#xa7;" 
 />
    <glyph glyph-name="bullet" unicode="&#x2022;" horiz-adv-x="700" 
d="M600 450q0 -104 -73 -177t-177 -73t-177 73t-73 177t73 177t177 73t177 -73t73 -177z" />
    <glyph glyph-name="paragraph" unicode="&#xb6;" 
 />
    <glyph glyph-name="germandbls" unicode="&#xdf;" 
 />
    <glyph glyph-name="registered" unicode="&#xae;" 
 />
    <glyph glyph-name="copyright" unicode="&#xa9;" 
 />
    <glyph glyph-name="trademark" unicode="&#x2122;" 
 />
    <glyph glyph-name="acute" unicode="&#xb4;" 
 />
    <glyph glyph-name="dieresis" unicode="&#xa8;" 
 />
    <glyph glyph-name="notequal" unicode="&#x2260;" 
 />
    <glyph glyph-name="AE" unicode="&#xc6;" 
 />
    <glyph glyph-name="Oslash" unicode="&#xd8;" 
 />
    <glyph glyph-name="infinity" unicode="&#x221e;" 
 />
    <glyph glyph-name="plusminus" unicode="&#xb1;" 
 />
    <glyph glyph-name="lessequal" unicode="&#x2264;" 
 />
    <glyph glyph-name="greaterequal" unicode="&#x2265;" 
 />
    <glyph glyph-name="yen" unicode="&#xa5;" 
 />
    <glyph glyph-name="mu" unicode="&#xb5;" 
 />
    <glyph glyph-name="mu" unicode="&#x3bc;" 
 />
    <glyph glyph-name="partialdiff" unicode="&#x2202;" 
 />
    <glyph glyph-name="summation" unicode="&#x2211;" 
 />
    <glyph glyph-name="product" unicode="&#x220f;" 
 />
    <glyph glyph-name="pi" unicode="&#x3c0;" 
 />
    <glyph glyph-name="integral" unicode="&#x222b;" 
 />
    <glyph glyph-name="ordfeminine" unicode="&#xaa;" 
 />
    <glyph glyph-name="ordmasculine" unicode="&#xba;" 
 />
    <glyph glyph-name="Omega" unicode="&#x3a9;" 
 />
    <glyph glyph-name="Omega" unicode="&#x2126;" 
 />
    <glyph glyph-name="ae" unicode="&#xe6;" 
 />
    <glyph glyph-name="oslash" unicode="&#xf8;" 
 />
    <glyph glyph-name="questiondown" unicode="&#xbf;" 
 />
    <glyph glyph-name="exclamdown" unicode="&#xa1;" 
 />
    <glyph glyph-name="logicalnot" unicode="&#xac;" 
 />
    <glyph glyph-name="radical" unicode="&#x221a;" 
 />
    <glyph glyph-name="florin" unicode="&#x192;" 
 />
    <glyph glyph-name="approxequal" unicode="&#x2248;" 
 />
    <glyph glyph-name="approxequal" unicode="&#x22f2;" 
 />
    <glyph glyph-name="Delta" unicode="&#x394;" 
 />
    <glyph glyph-name="Delta" unicode="&#x2206;" 
 />
    <glyph glyph-name="guillemotleft" unicode="&#xab;" 
 />
    <glyph glyph-name="guillemotright" unicode="&#xbb;" 
 />
    <glyph glyph-name="ellipsis" unicode="&#x2026;" horiz-adv-x="988" 
d="M844 0h-100v200h100v-200zM544 0h-100v200h100v-200zM244 0h-100v200h100v-200z" />
    <glyph glyph-name="nonbreakingspace" unicode="&#xa0;" horiz-adv-x="300" 
 />
    <glyph glyph-name="Agrave" unicode="&#xc0;" 
 />
    <glyph glyph-name="Atilde" unicode="&#xc3;" 
 />
    <glyph glyph-name="Otilde" unicode="&#xd5;" 
 />
    <glyph glyph-name="OE" unicode="&#x152;" 
 />
    <glyph glyph-name="oe" unicode="&#x153;" 
 />
    <glyph glyph-name="endash" unicode="&#x2013;" horiz-adv-x="700" 
d="M650 400h-600v100h600v-100z" />
    <glyph glyph-name="emdash" unicode="&#x2014;" horiz-adv-x="1100" 
d="M1050 400h-1000v100h1000v-100z" />
    <glyph glyph-name="quotedblleft" unicode="&#x201c;" horiz-adv-x="431" 
d="M398 1050q-41 0 -70.5 -44t-29.5 -106h50v-200h-100v200q0 83 44 141.5t106 58.5v-50zM198 1050q-41 0 -70.5 -44t-29.5 -106h50v-200h-100v200q0 83 44 141.5t106 58.5v-50z" />
    <glyph glyph-name="quotedblright" unicode="&#x201d;" horiz-adv-x="431" 
d="M383 800q0 -83 -44 -141.5t-106 -58.5v50q41 0 70.5 44t29.5 106h-50v200h100v-200zM183 800q0 -83 -44 -141.5t-106 -58.5v50q41 0 70.5 44t29.5 106h-50v200h100v-200z" />
    <glyph glyph-name="quoteleft" unicode="&#x2018;" horiz-adv-x="297" 
d="M231 1050q-41 0 -70.5 -44t-29.5 -106h50v-200h-100v200q0 83 44 141.5t106 58.5v-50z" />
    <glyph glyph-name="quoteright" unicode="&#x2019;" horiz-adv-x="297" 
d="M216 800q0 -83 -44 -141.5t-106 -58.5v50q41 0 70.5 44t29.5 106h-50v200h100v-200z" />
    <glyph glyph-name="divide" unicode="&#xf7;" 
 />
    <glyph glyph-name="lozenge" unicode="&#x25ca;" 
 />
    <glyph glyph-name="ydieresis" unicode="&#xff;" 
 />
    <glyph glyph-name="Ydieresis" unicode="&#x178;" 
 />
    <glyph glyph-name="fraction" unicode="&#x2044;" 
 />
    <glyph glyph-name="currency" unicode="&#xa4;" 
 />
    <glyph glyph-name="guilsinglleft" unicode="&#x2039;" 
 />
    <glyph glyph-name="guilsinglright" unicode="&#x203a;" 
 />
    <glyph glyph-name="fi" unicode="&#xf001;" 
 />
    <glyph glyph-name="fl" unicode="&#xf002;" 
 />
    <glyph glyph-name="daggerdbl" unicode="&#x2021;" 
 />
    <glyph glyph-name="periodcentered" unicode="&#xb7;" 
 />
    <glyph glyph-name="periodcentered" unicode="&#x2219;" 
 />
    <glyph glyph-name="quotesinglbase" unicode="&#x201a;" 
 />
    <glyph glyph-name="quotedblbase" unicode="&#x201e;" 
 />
    <glyph glyph-name="perthousand" unicode="&#x2030;" 
 />
    <glyph glyph-name="Acircumflex" unicode="&#xc2;" 
 />
    <glyph glyph-name="Ecircumflex" unicode="&#xca;" 
 />
    <glyph glyph-name="Aacute" unicode="&#xc1;" 
 />
    <glyph glyph-name="Edieresis" unicode="&#xcb;" 
 />
    <glyph glyph-name="Egrave" unicode="&#xc8;" 
 />
    <glyph glyph-name="Iacute" unicode="&#xcd;" 
 />
    <glyph glyph-name="Icircumflex" unicode="&#xce;" 
 />
    <glyph glyph-name="Idieresis" unicode="&#xcf;" 
 />
    <glyph glyph-name="Igrave" unicode="&#xcc;" 
 />
    <glyph glyph-name="Oacute" unicode="&#xd3;" 
 />
    <glyph glyph-name="Ocircumflex" unicode="&#xd4;" 
 />
    <glyph glyph-name="apple" unicode="&#xf000;" horiz-adv-x="1000" 
d="M872 394h-56v-394h-57v394h-56v56h169v-56zM900 591q0 -47 -32.5 -80t-79.5 -33h-760v-478h-28v900h788q47 0 79.5 -32.5t32.5 -79.5v-197zM872 591v197q0 35 -24.5 59.5t-59.5 24.5h-760v-366h760q35 0 59.5 25t24.5 60zM788 534h-29v149l-20 21q-7 -1 -8 -1v-169h-28
v310h28q23 0 40 -16.5t17 -39.5v-29q0 -26 -21 -43l21 -21v-161zM759 759v29q0 28 -28 28v-85q28 0 28 28zM675 534h-84v310h84v-28h-56v-85h28v-28h-28v-140h56v-29zM563 816h-57v-85h28v-28h-28v-169h-28v310h85v-28zM450 816h-56v-85h28v-28h-28v-169h-28v310h84v-28z
M338 534h-29v310h29v-310zM281 534h-84v310h84v-28h-56v-85h28v-28h-28v-140h56v-29zM169 816h-56v-85h28v-28h-28v-169h-29v310h85v-28zM675 56q0 -23 -16.5 -39.5t-39.5 -16.5q-29 0 -43 56l-70 278v-334h-56v394q0 23 16.5 39.5t39.5 16.5q29 0 43 -56l70 -278v334h56
v-394zM422 183q0 -76 -29 -129.5t-70 -53.5t-69.5 53.5t-28.5 129.5v84q0 76 28.5 129.5t69.5 53.5t70 -53.5t29 -129.5v-84zM366 183v84q0 52 -12.5 89.5t-30.5 37.5q-17 0 -29.5 -37t-12.5 -90v-84q0 -53 12.5 -90t29.5 -37q18 0 30.5 37.5t12.5 89.5zM197 394h-84v-113
h56v-56h-56v-225h-57v450h141v-56z" />
    <glyph glyph-name="Ograve" unicode="&#xd2;" 
 />
    <glyph glyph-name="Uacute" unicode="&#xda;" 
 />
    <glyph glyph-name="Ucircumflex" unicode="&#xdb;" 
 />
    <glyph glyph-name="Ugrave" unicode="&#xd9;" 
 />
    <glyph glyph-name="dotlessi" unicode="&#x131;" 
 />
    <glyph glyph-name="circumflex" unicode="&#x2c6;" 
 />
    <glyph glyph-name="tilde" unicode="&#x2dc;" 
 />
    <glyph glyph-name="macron" unicode="&#xaf;" 
 />
    <glyph glyph-name="macron" unicode="&#x2c9;" 
 />
    <glyph glyph-name="breve" unicode="&#x2d8;" 
 />
    <glyph glyph-name="dotaccent" unicode="&#x2d9;" 
 />
    <glyph glyph-name="ring" unicode="&#x2da;" 
 />
    <glyph glyph-name="cedilla" unicode="&#xb8;" 
 />
    <glyph glyph-name="hungarumlaut" unicode="&#x2dd;" 
 />
    <glyph glyph-name="ogonek" unicode="&#x2db;" 
 />
    <glyph glyph-name="caron" unicode="&#x2c7;" 
 />
    <glyph glyph-name="onehalf" unicode="&#xbd;" horiz-adv-x="900" 
d="M200 404h-67v401q-31 -15 -66 -15h-67v55h67q30 0 51.5 16t21.5 39h60v-496zM606 900l-404 -1000h-108l404 1000h108zM799 -100h-399q0 86 87 165q24 22 160 116q86 59 86 98q0 51 -39 66q-22 8 -94 8q-65 0 -94 -12q-39 -17 -39 -62h-67q0 77 68 104q42 17 132 17
t132 -17q67 -27 67 -104q0 -46 -69 -101q-71 -51 -141 -101q-86 -65 -112 -123h322v-54z" />
    <glyph glyph-name="onequarter" unicode="&#xbc;" horiz-adv-x="900" 
d="M200 404h-67v401q-31 -15 -66 -15h-67v55h67q30 0 51.5 16t21.5 39h60v-496zM799 68h-66v-168h-67v168h-266v57l269 279h64v-280h66v-56zM666 124v206l-201 -206h201zM606 900l-404 -1000h-108l404 1000h108z" />
    <glyph glyph-name="threequarters" unicode="&#xbe;" horiz-adv-x="1000" 
d="M899 68h-66v-168h-67v168h-266v57l269 279h64v-280h66v-56zM766 124v206l-201 -206h201zM706 900l-404 -1000h-108l404 1000h108zM318 538q0 -80 -37.5 -111t-118.5 -31q-74 0 -109 19q-47 26 -47 97h52q0 -43 31 -59q22 -12 73 -12q64 0 82 14q22 17 22 83q0 79 -52 79
h-104v52h104q52 0 52 78q0 66 -22 83q-18 14 -82 14q-51 0 -73 -12q-31 -16 -31 -59h-52q0 71 47 97q35 19 109 19q81 0 118.5 -31t37.5 -111q0 -73 -35 -104q35 -31 35 -105z" />
  </font>
</defs>
</svg>
